HIERARCHY
ROOT root
{
	OFFSET 0.000000 0.000000 0.000000
	CHANNELS 6 Xposition Yposition Zposition Zrotation Yrotation Xrotation
	JOINT lhip
	{
		OFFSET 0.058581 -0.082280 -0.017664
		CHANNELS 3 Zrotation Yrotation Xrotation
		JOINT lknee
		{
			OFFSET 0.043451 -0.386469 0.008037
			CHANNELS 3 Zrotation Yrotation Xrotation
			JOINT lankle
			{
				OFFSET -0.014790 -0.426874 -0.037428
				CHANNELS 3 Zrotation Yrotation Xrotation
				JOINT ltoe
				{
					OFFSET 0.041054 -0.060286 0.122042
					CHANNELS 3 Zrotation Yrotation Xrotation
					End Site
					{
						OFFSET 0.000000 0.000000 0.000000
					}
				}
			}
		}
	}
	JOINT rhip
	{
		OFFSET -0.060310 -0.090513 -0.013543
		CHANNELS 3 Zrotation Yrotation Xrotation
		JOINT rknee
		{
			OFFSET -0.043257 -0.383688 -0.004843
			CHANNELS 3 Zrotation Yrotation Xrotation
			JOINT rankle
			{
				OFFSET 0.019056 -0.420046 -0.034562
				CHANNELS 3 Zrotation Yrotation Xrotation
				JOINT rtoe
				{
					OFFSET -0.034840 -0.062106 0.130323
					CHANNELS 3 Zrotation Yrotation Xrotation
					End Site
					{
						OFFSET 0.000000 0.000000 0.000000
					}
				}
			}
		}
	}
	JOINT lowerback
	{
		OFFSET 0.004439 0.124404 -0.038385
		CHANNELS 3 Zrotation Yrotation Xrotation
		JOINT upperback
		{
			OFFSET 0.004488 0.137956 0.026820
			CHANNELS 3 Zrotation Yrotation Xrotation
			JOINT chest
			{
				OFFSET -0.002265 0.056032 0.002855
				CHANNELS 3 Zrotation Yrotation Xrotation
				JOINT lowerneck
				{
					OFFSET -0.013390 0.211636 -0.033468
					CHANNELS 3 Zrotation Yrotation Xrotation
					JOINT upperneck
					{
						OFFSET 0.010113 0.088937 0.050410
						CHANNELS 3 Zrotation Yrotation Xrotation
						End Site
						{
							OFFSET 0.000000 0.000000 0.000000
						}
					}
				}
				JOINT lclavicle
				{
					OFFSET 0.071702 0.114000 -0.018898
					CHANNELS 3 Zrotation Yrotation Xrotation
					JOINT lshoulder
					{
						OFFSET 0.122921 0.045205 -0.019046
						CHANNELS 3 Zrotation Yrotation Xrotation
						JOINT lelbow
						{
							OFFSET 0.255332 -0.015649 -0.022946
							CHANNELS 3 Zrotation Yrotation Xrotation
							JOINT lwrist
							{
								OFFSET 0.265709 0.012698 -0.007375
								CHANNELS 3 Zrotation Yrotation Xrotation
								End Site
								{
									OFFSET 0.000000 0.000000 0.000000
								}
							}
						}
					}
				}
				JOINT rclavicle
				{
					OFFSET -0.082954 0.112472 -0.023707
					CHANNELS 3 Zrotation Yrotation Xrotation
					JOINT rshoulder
					{
						OFFSET -0.113228 0.046853 -0.008472
						CHANNELS 3 Zrotation Yrotation Xrotation
						JOINT relbow
						{
							OFFSET -0.260127 -0.014369 -0.031269
							CHANNELS 3 Zrotation Yrotation Xrotation
							JOINT rwrist
							{
								OFFSET -0.269108 0.006794 -0.006027
								CHANNELS 3 Zrotation Yrotation Xrotation
								End Site
								{
									OFFSET 0.000000 0.000000 0.000000
								}
							}
						}
					}
				}
			}
		}
	}
}
MOTION
Frames: 14
Frame Time: 0.033333
0.549831 0.254598 0.999960 84.416550 -0.687240 81.960815 1.473345 0.078288 -17.126163 -3.689828 3.313381 39.043228 2.174953 10.096304 -6.505670 0.000000 -0.000000 0.000000 3.572390 -3.311421 8.247705 0.540346 6.867246 10.105364 -0.783459 -5.159168 -13.055780 0.000000 -0.000000 0.000000 0.893777 4.766896 14.470387 0.606391 0.165248 -3.864457 -0.746438 0.537462 2.559786 1.815462 4.127221 -4.983318 -3.692133 -0.129370 14.562067 -30.939582 6.673133 -1.924416 -53.243261 -3.227832 9.868165 4.052996 -27.471089 13.435500 -2.903731 -0.197492 1.471290 31.124371 -0.031007 -2.251690 50.227761 9.704395 13.603665 -10.329794 22.339889 -7.154183 4.052583 1.078768 -4.901444 
0.585502 0.255090 0.995895 84.016241 -0.801782 82.401881 1.565953 0.157697 -17.885085 -2.985591 3.241535 28.783066 2.618071 10.479800 -4.899968 0.000000 -0.000000 0.000000 2.982908 -3.867833 10.218569 0.560622 7.673198 10.005533 -0.962247 -5.180425 -14.737617 0.000000 -0.000000 0.000000 1.177505 5.288178 13.876579 0.300412 0.365064 -3.229316 -0.927196 0.874891 2.667963 2.131769 4.599658 -5.171019 -4.088526 -0.795214 14.420896 -31.156874 7.270802 -2.264248 -53.085095 -2.512853 10.160187 3.443989 -27.593290 13.897074 -2.990597 -0.541590 2.120290 30.892761 0.148741 -2.494071 49.866106 10.585564 13.679791 -10.673439 24.265588 -7.631150 3.260998 2.036594 -4.893861 
0.622140 0.255902 0.990581 83.891380 -0.713940 82.936849 1.544474 0.389340 -17.809552 -2.471146 2.143997 17.263260 0.602648 10.223753 -4.816712 0.000000 -0.000000 0.000000 2.659878 -4.492226 12.197633 0.367435 8.436501 9.915651 -0.555846 -5.291665 -16.687876 0.000000 -0.000000 0.000000 1.456124 5.636132 13.344180 0.120301 0.374232 -2.887476 -0.948672 1.256518 2.515833 2.275225 4.978084 -5.100637 -4.225406 -1.310141 14.142208 -30.891392 7.484126 -2.389352 -53.688941 -1.273006 10.505335 3.346537 -26.916882 13.837120 -1.955763 0.029152 1.218474 30.575738 0.400487 -2.334548 49.635431 11.377906 13.510149 -11.156944 25.554154 -8.208746 2.777135 2.157861 -5.278074 
0.659788 0.257451 0.984256 83.845313 -0.729993 83.460431 1.206905 0.220730 -17.030357 -1.779493 -1.090031 5.796756 0.713602 9.033510 -5.212397 0.000000 -0.000000 0.000000 2.127429 -4.625910 14.313055 0.331282 9.029591 10.057023 0.029037 -5.125900 -18.420887 0.000000 -0.000000 0.000000 1.649675 5.814636 12.664619 -0.107960 0.571119 -2.420207 -1.019922 1.461191 2.381141 2.663550 5.396152 -5.067993 -4.559075 -2.035344 14.103865 -31.057121 7.717916 -2.575852 -53.791498 -0.538166 10.738381 3.398726 -26.157345 13.484034 -2.012726 -0.180602 1.466500 30.350373 0.695612 -2.439225 49.496623 11.779635 13.493417 -11.620778 26.343384 -8.502512 2.709952 2.931834 -5.175889 
0.699964 0.259741 0.977469 83.625713 -0.866927 83.855909 1.037173 0.461195 -16.675935 -1.897119 -1.352645 -0.779904 -0.231578 7.486092 -6.304558 0.000000 -0.000000 0.000000 1.143730 -4.993670 16.069519 0.534330 9.439957 11.007208 0.711001 -5.112057 -19.817544 0.000000 -0.000000 0.000000 1.687985 6.194928 12.059165 -0.167998 0.643170 -2.157336 -1.095597 1.611407 2.350128 2.964229 5.748009 -5.061514 -4.919375 -2.540819 14.087154 -31.260641 8.105014 -2.556770 -53.790930 -0.101740 10.594840 3.070937 -25.047491 13.440051 -1.658388 -0.807942 1.574492 30.313164 0.696066 -2.519350 49.191718 12.140911 13.389929 -11.723309 26.961837 -8.506391 2.387310 3.262183 -5.112383 
0.741103 0.262790 0.971442 83.577856 -1.198087 84.134427 0.833328 -0.913205 -17.531571 -2.242430 -0.159394 1.103335 -0.292314 7.757157 -5.707420 0.000000 -0.000000 0.000000 0.450572 -4.327923 17.360244 0.576170 10.478734 13.811772 1.778555 -5.186551 -19.831845 0.000000 -0.000000 0.000000 1.413097 6.859060 11.928913 -0.027837 0.476093 -2.213507 -1.123323 1.696359 2.027395 3.022307 5.317659 -4.837140 -4.988538 -2.396287 13.957018 -31.218687 8.332438 -2.225009 -54.103325 0.798002 10.587738 3.347206 -24.513938 12.955937 -2.347740 0.079669 0.943205 30.373426 0.542625 -2.631498 48.953913 12.083906 13.478200 -12.384301 27.662316 -9.411898 3.009243 2.150465 -5.230750 
0.783858 0.266867 0.967500 83.739254 -1.646759 84.312124 0.012936 -2.858429 -18.407039 -2.438383 -0.429285 7.010398 0.834490 9.199742 -5.757884 0.000000 -0.000000 0.000000 -0.096347 -3.871783 17.690698 0.279465 10.856609 18.129736 2.865259 -5.396840 -19.140221 0.000000 -0.000000 0.000000 1.036149 7.441568 11.370097 0.180426 0.263996 -2.099755 -1.162846 1.533917 2.209284 2.975474 4.848142 -5.015104 -5.061099 -2.229924 13.725613 -31.298376 8.193127 -2.160296 -54.272391 1.194819 10.670928 3.450052 -22.772496 13.225903 -3.302448 0.509531 0.819332 30.656025 0.437022 -2.667743 48.604744 11.807459 13.784512 -12.774694 27.362680 -9.250776 3.056810 2.999596 -5.194599 
0.830432 0.270909 0.966352 83.631548 -2.037004 84.270503 -1.186630 -3.445315 -18.095803 -2.434076 -0.706721 10.692233 1.783559 8.596945 -2.472040 0.000000 -0.000000 0.000000 -0.836348 -3.204353 17.723056 0.432240 10.650569 22.864784 4.151216 -4.662299 -15.714581 0.000000 -0.000000 0.000000 0.671902 7.671862 10.603735 0.326551 0.487493 -2.074271 -1.358653 1.682089 2.064774 3.252618 4.440102 -4.570922 -4.947340 -1.663064 14.524121 -31.715189 8.621791 -2.302592 -53.694641 1.266116 10.665781 3.572323 -21.204838 12.915763 -3.552118 0.314569 2.199080 31.378020 0.010432 -2.720811 48.416436 11.299090 14.060716 -13.176494 25.887012 -10.389180 3.343214 2.858297 -4.633955 
0.877780 0.275798 0.969806 84.506878 -2.499112 84.255142 -2.360052 -4.276107 -17.708216 -3.284951 -1.708701 14.486516 3.584639 8.859241 -0.626316 0.000000 -0.000000 0.000000 -1.968629 -3.385163 16.009788 0.923786 9.593085 29.340723 6.328186 -3.347850 -7.006596 0.000000 -0.000000 0.000000 0.323490 7.454305 10.200553 0.420375 0.356400 -2.622781 -1.539944 1.417807 1.800668 3.184594 3.314095 -3.476790 -4.514139 -0.768083 14.570026 -31.557978 9.444008 -2.506629 -53.946300 1.431096 10.346268 3.942799 -18.928555 12.741893 -5.043501 0.983735 1.610974 31.658482 -1.292963 -3.231671 49.054372 10.722664 14.226630 -12.999050 23.736517 -11.146459 4.339968 2.388173 -4.306018 
0.923691 0.280396 0.974229 85.118524 -2.695859 83.967974 -3.351875 -4.712197 -15.849724 -4.072082 -2.151290 16.644074 6.413874 9.150241 -1.279264 0.000000 -0.000000 0.000000 -2.454005 -2.493939 12.562979 2.670914 9.261306 38.034492 6.466328 -2.145831 3.298617 0.000000 -0.000000 0.000000 0.119919 6.615889 9.718927 0.691930 0.676513 -2.601607 -1.776910 1.099024 1.881375 2.990228 2.369138 -3.023169 -4.420259 0.170260 13.988696 -31.340948 9.818754 -1.951363 -54.023685 0.968746 10.002326 4.248849 -18.395844 12.723687 -6.568766 0.979568 1.317952 31.417940 -1.948305 -3.105124 50.041361 10.246680 14.281192 -13.128173 21.638448 -11.659272 5.333189 2.232144 -4.453270 
0.966037 0.283981 0.977088 84.772523 -2.897273 83.800450 -4.554239 -4.584815 -13.649943 -4.118090 -2.760619 18.171283 9.262900 10.548941 -3.765755 0.000000 -0.000000 0.000000 -2.566649 -0.948001 7.292776 4.699055 9.413295 47.231627 6.004176 -3.112426 6.585859 0.000000 -0.000000 0.000000 -0.338982 5.586735 9.722636 0.954367 1.382955 -2.793085 -1.801743 1.040188 2.145150 3.156091 2.554985 -3.747365 -4.641698 0.772856 14.121930 -31.206292 9.546299 -1.942442 -53.824516 0.659232 10.029196 4.104620 -18.667062 11.926582 -6.244983 0.880343 0.568248 31.900690 -2.027937 -2.921923 49.849923 9.861460 14.501998 -13.060586 20.382017 -12.826124 5.541444 1.438471 -4.400182 
1.007611 0.285609 0.980363 85.183726 -2.944745 83.197677 -5.685421 -3.394091 -10.360197 -3.911304 -4.063102 18.375193 9.959540 10.988337 -6.236911 0.000000 -0.000000 0.000000 -2.356903 -0.568345 2.335340 3.337099 7.490837 53.419783 3.995620 -6.212793 1.962069 0.000000 -0.000000 0.000000 -0.897926 4.138724 10.444908 1.205919 1.618935 -3.237806 -1.674491 0.597813 2.649262 3.651438 3.431967 -4.780310 -5.323357 1.061803 14.352011 -31.319273 9.168519 -1.567551 -53.132778 0.255356 9.502271 3.767668 -19.800936 11.393403 -6.345481 0.405149 -0.352163 32.955800 -1.514127 -2.935951 49.007579 9.640968 14.583233 -12.537185 19.108945 -13.330096 5.887488 1.482063 -3.860768 
1.049956 0.286192 0.985183 86.357559 -2.561669 82.183981 -6.054962 -2.166242 -5.944024 -3.925346 -6.155760 17.353029 9.855619 11.031164 -8.280161 0.000000 -0.000000 0.000000 -2.015447 -0.595737 -1.208995 1.933795 5.422898 55.898555 3.276089 -7.933000 -1.436822 0.000000 -0.000000 0.000000 -0.877248 2.479646 11.137279 1.464007 1.273448 -3.160363 -1.541540 -0.080806 2.860064 3.707862 4.088880 -4.536726 -5.704582 1.100147 14.081242 -31.091515 8.500550 -1.024880 -52.921926 -0.976602 9.058036 4.385182 -21.727928 11.238199 -6.495927 0.652810 1.094017 33.073171 -1.095730 -3.030286 49.236555 9.052940 14.248982 -12.377587 17.927228 -13.398985 6.561188 1.046273 -2.966030 
1.090124 0.286221 0.989459 87.861088 -2.098189 81.540613 -5.853213 -0.819044 -1.768837 -4.196845 -8.584488 15.676780 9.863857 11.059531 -9.706737 0.000000 -0.000000 0.000000 -1.812144 -0.039867 -5.113006 1.649218 3.023440 56.178018 2.893152 -9.149864 -3.469763 0.000000 -0.000000 0.000000 -0.976917 0.759406 11.512222 1.778587 0.895340 -3.048370 -1.325873 -0.790089 2.828838 3.671932 4.411559 -4.066751 -5.847758 0.981283 14.105381 -30.423570 7.409134 -0.623026 -52.925585 -2.438510 9.011691 4.577319 -21.643169 11.485328 -6.645024 1.095739 1.526500 33.157807 -0.990050 -2.899693 49.651126 8.477767 13.764177 -12.392073 17.211953 -13.633853 6.814882 0.764432 -2.937970 
